<?xml version="1.0" encoding="utf-8"?>
<!-- Generator: Adobe Illustrator 24.0.2, SVG Export Plug-In . SVG Version: 6.00 Build 0)  -->
<svg version="1.1" id="Blog" xmlns="http://www.w3.org/2000/svg" xmlns:xlink="http://www.w3.org/1999/xlink" x="0px" y="0px"
	 viewBox="0 0 260 100" style="enable-background:new 0 0 260 100;" xml:space="preserve">
<style type="text/css">
	.st0{fill:#FFFFFF;}
	.st1{fill-rule:evenodd;clip-rule:evenodd;fill:url(#brown_2_);}
	.st2{fill:#5C4638;}
	.st3{fill-rule:evenodd;clip-rule:evenodd;fill:#5C4638;}
	.st4{fill:url(#SVGID_1_);}
	.st5{fill:#C9BDA9;}
	.st6{fill-rule:evenodd;clip-rule:evenodd;fill:url(#SVGID_2_);}
	.st7{fill-rule:evenodd;clip-rule:evenodd;fill:url(#SVGID_3_);}
	.st8{fill:#AA9775;}
	.st9{fill-rule:evenodd;clip-rule:evenodd;fill:url(#SVGID_4_);}
	.st10{fill:url(#SVGID_5_);}
	.st11{fill:#B6A686;}
	.st12{fill:#CCBD9D;}
	.st13{fill:url(#_x35__2_);}
	.st14{fill:url(#SVGID_6_);}
	.st15{fill:#F9F4DF;}
	.st16{fill:#282828;}
</style>
<g>
	<g>
		<path id="base_1_" class="st0" d="M254.34,34.49c-2.03-2.3-4.73-3.56-7.6-3.56h0c-0.21,0-0.42,0.01-0.63,0.02L69.37,42.49l-0.03,0
			l-0.03,0c-8.64,0.85-13.59,6.09-14.29,15.16l-0.08,1.05c-0.17-0.02-0.34-0.03-0.5-0.03c-0.25,0-0.5,0.02-0.74,0.07
			c-0.21,0.02-0.45,0.08-0.71,0.17l0-3.7c1.84-1.19,2.54-4.24,3.64-9.62c0.14-0.7,0.29-1.41,0.44-2.12c1.35-3,3.34-5.79,5.28-8.49
			c3.34-4.66,6.79-9.48,6.43-15.15L68.54,19c-3.77-7.37-8.8-12.09-15.4-14.41c-1.98-0.71-3.76-1.09-5.19-1.39
			c-0.59-0.12-1.1-0.23-1.53-0.34l-0.15-0.03c-3.67-0.68-7.64-1.31-11.73-1.31c-1.74,0-3.35,0.11-4.95,0.34
			c-2.01,0.29-4.06,1.22-6.23,2.21c-2.33,1.06-4.74,2.15-6.85,2.3l-0.52,0.1c-4.67,1.54-6.19,3.68-7.42,5.41
			C8.49,12,8.4,12.12,8.32,12.24L8.11,12.6c-1.53,3.33-1.91,6.74-1.14,10.16l0.05,0.17c0.57,1.82,1.25,3.59,1.9,5.29
			c1.3,3.39,2.52,6.59,3.02,10.19l0.26,0.76c0.5,0.88,0.88,2.22,1.3,3.64c0.85,2.94,1.91,6.59,4.75,9.49l0.01,0.29v4.03
			c0,0-10.54,5.09-13.6,7.36c-1.55,1.15-3.58,3.96,0.14,6.31c2.86,1.81,11.96,6.57,11.93,6.84c-0.32,3.24,0.79,6.15,1.84,7.39
			c1.72,2.03,4.54,3.19,7.75,3.19c3.07,0,6.09-1.07,8.09-2.85c0.5-0.45,0.93-0.93,1.28-1.42c0.36,0.5,0.78,0.98,1.28,1.42
			c1.99,1.78,5.02,2.85,8.09,2.85c3.21,0,6.03-1.16,7.75-3.19c1.13-1.33,2.35-3.71,1.72-7.43l-0.11-0.61c0.06,0,1.63-0.78,1.63-0.78
			s0,0.01,0.01,0.13c0.18,2.03,0.49,5.59,5.84,6.05l0.06,0.01l0.06,0l184.17,4.96c0.09,0,0.18,0,0.28,0c2.93,0,5.68-1.24,7.75-3.48
			c2.02-2.19,3.13-5.05,3.13-8.07V42.5C257.35,39.53,256.28,36.69,254.34,34.49z"/>
		<linearGradient id="brown_2_" gradientUnits="userSpaceOnUse" x1="57.1314" y1="58.8844" x2="255.2248" y2="58.8844">
			<stop  offset="0" style="stop-color:#3B2519"/>
			<stop  offset="0.1288" style="stop-color:#4B2D1C"/>
			<stop  offset="0.3328" style="stop-color:#60361D"/>
			<stop  offset="0.5096" style="stop-color:#6F3C1D"/>
			<stop  offset="0.6382" style="stop-color:#743E1D"/>
			<stop  offset="0.7254" style="stop-color:#703C1D"/>
			<stop  offset="0.8265" style="stop-color:#65381C"/>
			<stop  offset="0.934" style="stop-color:#54301A"/>
			<stop  offset="1" style="stop-color:#482A17"/>
		</linearGradient>
		<path id="brown_1_" class="st1" d="M69.51,44.61l176.73-11.54c4.93-0.32,8.98,4.24,8.98,9.43v32.79c0,5.18-4.04,9.56-8.98,9.43
			L62.08,79.75c-3.79-0.33-3.76-2.55-3.96-4.7c13.03-2.36,5.67-18.04-0.98-17.23C57.86,48.38,63.32,45.22,69.51,44.61L69.51,44.61z"
			/>
		<g id="face_1_">
			<g>
				<path class="st2" d="M57.41,61.8L57.41,61.8c2.2,0.72,4.01,1.74,5.42,3.06c0.31,0.22,0.46,0.47,0.46,0.76
					c0,0.47-0.35,0.92-1.06,1.36c-0.83,0.52-2.07,1.44-3.71,2.76c-1.52,1.21-2.75,2.09-3.68,2.65c-0.18,0.09-0.36,0.14-0.54,0.14
					c-0.27,0-0.51-0.1-0.7-0.28c-0.2-0.19-0.3-0.41-0.3-0.66c0-0.22,0.08-0.41,0.24-0.6c0.22-0.36,0.72-0.76,1.52-1.19
					c0.52-0.27,1.17-0.71,1.95-1.33c0.94-0.76,1.59-1.26,1.95-1.49c0.79-0.4,1.19-0.68,1.19-0.84c0-0.04-0.01-0.07-0.03-0.11
					c-0.43-0.76-1.15-1.33-2.14-1.71c-0.88-0.25-1.78-0.51-2.68-0.79c-1.06-0.32-1.85-0.78-2.36-1.38
					c-0.04-0.05-0.05-0.12-0.05-0.19c0-0.22,0.13-0.46,0.38-0.72c0.25-0.26,0.5-0.39,0.73-0.39c0.14-0.04,0.29-0.05,0.43-0.05
					c0.42,0,0.93,0.13,1.54,0.38C56.44,61.37,56.92,61.58,57.41,61.8 M15.16,60.9c0.41,0,0.75,0.11,1.02,0.33
					c0.26,0.22,0.39,0.47,0.39,0.76c0,0.22-0.08,0.41-0.24,0.57c-0.6,0.65-1.82,1.35-3.68,2.09c-1.72,0.69-2.87,1.48-3.47,2.38
					c1.01,0.61,2.34,1.28,3.98,2c2.62,1.17,3.97,1.78,4.06,1.82c0.34,0.16,0.51,0.42,0.51,0.79c0.04,0.45-0.14,0.83-0.53,1.15
					c-0.39,0.32-0.84,0.47-1.34,0.47c-0.2,0-0.39-0.04-0.57-0.11c-0.22-0.22-0.51-0.47-0.89-0.76c-2.38-1.3-4.93-2.54-7.64-3.71
					c-0.27-0.11-0.54-0.21-0.81-0.3c-0.34-0.16-0.54-0.4-0.6-0.7c0-0.78,0.34-1.5,1.03-2.17c0.83-0.67,2.2-1.43,4.12-2.3
					c1.86-0.83,3.2-1.6,4.04-2.3C14.54,60.9,14.75,60.9,15.16,60.9z"/>
				<path class="st2" d="M32.15,60.87c-0.45-0.65-0.87-1.11-1.25-1.38c-0.38-0.27-0.82-0.4-1.33-0.4c-0.18,0-0.34,0.03-0.47,0.08
					l-3,1.04c-0.17,0.06-0.37,0.08-0.59,0.08c-0.4,0-0.72-0.09-0.96-0.28c-0.25-0.18-0.55-0.55-0.9-1.1l-0.83,0.55
					c0.52,0.75,0.97,1.25,1.33,1.49c0.37,0.25,0.83,0.37,1.4,0.37c0.25,0,0.5-0.04,0.74-0.11l2.75-1c0.18-0.07,0.38-0.11,0.59-0.11
					c0.35,0,0.63,0.07,0.85,0.22c0.21,0.14,0.51,0.47,0.89,0.99L32.15,60.87"/>
				<path class="st3" d="M52.42,77.44c1.51,9.02-9.52,9.89-14.05,5.84c-3.13-2.8-2.25-6.69,2.24-6.45
					C44.56,77.04,46.89,82.13,52.42,77.44"/>
				<path class="st3" d="M18.92,77.44c-1.51,9.02,9.52,9.89,14.05,5.84c3.13-2.8,2.25-6.69-2.24-6.45
					C26.78,77.04,24.45,82.13,18.92,77.44"/>
				<path class="st2" d="M29.75,64.35c-0.5-0.35-1.12-0.53-1.86-0.53c-0.89,0-1.61,0.27-2.17,0.8c-0.65,0.59-0.9,1.43-0.75,2.53
					c0.09,0.89,0.41,1.67,0.95,2.35c0.55,0.68,1.21,1.02,1.97,1.02c0.47,0,0.96-0.13,1.46-0.4c0.89-0.53,1.33-1.55,1.33-3.06
					C30.68,65.7,30.37,64.79,29.75,64.35z M27.85,67.94c-0.52,0-0.95-0.42-0.95-0.95c0-0.52,0.42-0.95,0.95-0.95
					c0.52,0,0.95,0.42,0.95,0.95C28.8,67.52,28.37,67.94,27.85,67.94z"/>
				<path class="st2" d="M36.35,76.05c0.28,0,0.55-0.05,0.8-0.15c0.25-0.1,0.48-0.22,0.69-0.38c0.21-0.16,0.4-0.34,0.57-0.53
					c0.17-0.2,0.32-0.39,0.44-0.6c0.13-0.2,0.23-0.39,0.31-0.58c0.08-0.18,0.14-0.33,0.17-0.46c-0.01-0.02-0.02-0.05-0.04-0.09
					c-0.02-0.03-0.04-0.06-0.05-0.09c-0.02-0.02-0.03-0.03-0.04-0.03c-0.24,0.44-0.5,0.8-0.8,1.08c-0.3,0.28-0.63,0.48-0.98,0.61
					c-0.36,0.13-0.75,0.19-1.16,0.19c-0.36,0-0.68-0.05-0.96-0.14c-0.29-0.09-0.54-0.23-0.77-0.4c-0.23-0.18-0.43-0.39-0.62-0.63
					c-0.18-0.24-0.35-0.52-0.5-0.82c-0.01,0-0.02,0.01-0.04,0.03c-0.02,0.02-0.04,0.05-0.05,0.08c-0.02,0.03-0.02,0.05-0.03,0.07
					c0.14,0.39,0.31,0.75,0.52,1.1c0.2,0.34,0.43,0.64,0.69,0.9c0.26,0.26,0.54,0.47,0.86,0.62C35.65,75.97,35.99,76.05,36.35,76.05
					"/>
				<path class="st2" d="M45.14,64.28c-0.5-0.35-1.12-0.53-1.86-0.53c-0.89,0-1.61,0.27-2.17,0.8c-0.65,0.59-0.9,1.44-0.75,2.53
					c0.09,0.89,0.41,1.67,0.95,2.35s1.21,1.02,1.97,1.02c0.47,0,0.96-0.13,1.46-0.4c0.89-0.53,1.33-1.55,1.33-3.06
					C46.08,65.63,45.76,64.73,45.14,64.28z M42.96,68.05c-0.52,0-0.95-0.43-0.95-0.95c0-0.52,0.42-0.95,0.95-0.95
					c0.52,0,0.95,0.42,0.95,0.95C43.91,67.62,43.48,68.05,42.96,68.05z"/>
			</g>
			<g id="Cap_1_">
				<g>
					<linearGradient id="SVGID_1_" gradientUnits="userSpaceOnUse" x1="8.8471" y1="28.6108" x2="66.6675" y2="28.6108">
						<stop  offset="0.0397" style="stop-color:#FAFAED"/>
						<stop  offset="0.4183" style="stop-color:#FAFAED"/>
						<stop  offset="0.4894" style="stop-color:#F3F0E1"/>
						<stop  offset="0.6114" style="stop-color:#E5DDC7"/>
						<stop  offset="0.7686" style="stop-color:#CFC09F"/>
						<stop  offset="0.7969" style="stop-color:#CBBB98"/>
						<stop  offset="1" style="stop-color:#BBA786"/>
					</linearGradient>
					<path class="st4" d="M51.65,53.53c1.54-0.67,2.33-5.87,3.37-10.71c3.75-8.57,12.12-14.88,11.62-22.85
						c-6.87-13.45-16.49-13.93-20.61-15C40.7,3.98,35.37,3.25,30.04,4.01c-3.79,0.56-8.7,4.21-13.24,4.52
						c-4.33,1.43-5.41,3.33-6.62,5c-1.35,2.94-1.66,5.87-1,8.81c1.66,5.28,4.21,10.08,5,15.83c1.75,3.09,1.87,8.93,5.87,12.85
						C32.29,45.19,42.29,49.72,51.65,53.53z"/>
					<path class="st5" d="M51.51,53.59l-1.15-0.47c-9.19-3.75-18.7-7.63-30.42-2.05l-0.07,0.03l-0.05-0.05
						c-2.61-2.56-3.57-5.87-4.41-8.8c-0.45-1.54-0.87-2.99-1.48-4.08l-0.01-0.04c-0.53-3.82-1.85-7.29-3.13-10.63
						c-0.64-1.68-1.31-3.42-1.86-5.18c-0.67-2.98-0.33-5.97,1-8.88c0.1-0.14,0.19-0.27,0.28-0.4c1.11-1.56,2.36-3.33,6.4-4.66
						c2.5-0.18,5.08-1.35,7.57-2.48c2.04-0.93,3.97-1.8,5.69-2.05c5.07-0.73,10.07-0.15,16.02,0.95c0.48,0.12,1.01,0.24,1.62,0.37
						c4.53,0.96,12.96,2.73,19.06,14.69l0.01,0.04c0.31,4.96-2.78,9.28-6.06,13.85c-2.03,2.84-4.14,5.78-5.57,9.05
						c-0.16,0.76-0.32,1.55-0.48,2.33c-0.86,4.21-1.6,7.85-2.95,8.43L51.51,53.59z M31.87,48.06c6.66,0,12.68,2.46,18.58,4.87
						l1.06,0.43c1.22-0.6,1.98-4.33,2.79-8.27c0.16-0.78,0.32-1.57,0.49-2.35c1.45-3.31,3.56-6.26,5.6-9.11
						c3.25-4.54,6.32-8.82,6.02-13.7C60.34,8.09,52.3,6.4,47.49,5.38c-0.62-0.13-1.15-0.24-1.63-0.37
						c-5.93-1.09-10.91-1.67-15.95-0.95c-1.69,0.25-3.6,1.12-5.63,2.03c-2.51,1.14-5.1,2.31-7.62,2.49
						c-3.95,1.3-5.18,3.04-6.27,4.58c-0.09,0.13-0.18,0.25-0.27,0.38c-1.31,2.85-1.64,5.79-0.98,8.72c0.55,1.75,1.21,3.48,1.86,5.16
						c1.28,3.35,2.61,6.82,3.14,10.66c0.62,1.1,1.04,2.56,1.49,4.1c0.83,2.88,1.78,6.14,4.31,8.66
						C24.17,48.84,28.12,48.06,31.87,48.06z"/>
				</g>
				<g>
					<linearGradient id="SVGID_2_" gradientUnits="userSpaceOnUse" x1="20.28" y1="49.3487" x2="50.9829" y2="49.3487">
						<stop  offset="0" style="stop-color:#FAFAED"/>
						<stop  offset="0.0526" style="stop-color:#FAFAED"/>
						<stop  offset="0.3844" style="stop-color:#FAFAED"/>
						<stop  offset="0.5096" style="stop-color:#F5F3E5"/>
						<stop  offset="0.6972" style="stop-color:#EBE4D0"/>
						<stop  offset="0.923" style="stop-color:#DBCFB2"/>
						<stop  offset="0.9987" style="stop-color:#D5C7A7"/>
					</linearGradient>
					<path class="st6" d="M20.4,54.43c4.41-2.34,15.45-8.13,30.23,2.02c0.42-2.38,0.46-4.76,0.13-7.14
						c-0.42-5.63-22.48-12.52-30.48-0.12L20.4,54.43"/>
					<path class="st5" d="M50.67,56.53l-0.06-0.04c-6.33-4.35-12.71-6.26-18.97-5.69c-5.18,0.47-9.1,2.55-11.21,3.67l-0.06,0.03
						l0-0.07l-0.12-5.25l0.01-0.01c2.16-3.34,5.43-5.52,9.74-6.46c3.53-0.78,7.65-0.65,11.6,0.36c5.26,1.34,9.05,3.91,9.22,6.24
						c0.33,2.37,0.29,4.78-0.13,7.15L50.67,56.53z M33.8,50.61c5.56,0,11.2,1.93,16.8,5.77c0.4-2.34,0.44-4.71,0.11-7.06
						c-0.17-2.26-4.02-4.86-9.16-6.17c-3.93-1-8.04-1.13-11.56-0.36c-4.28,0.94-7.54,3.1-9.68,6.41l0.12,5.15
						c2.13-1.13,6.03-3.18,11.18-3.65C32.35,50.64,33.08,50.61,33.8,50.61z"/>
				</g>
				<g>
					<g id="_x31__1_">
						<linearGradient id="SVGID_3_" gradientUnits="userSpaceOnUse" x1="10.1735" y1="22.0322" x2="15.7434" y2="22.0322">
							<stop  offset="0" style="stop-color:#E9DCCB"/>
							<stop  offset="1" style="stop-color:#F3EDDF"/>
						</linearGradient>
						<path class="st7" d="M14.19,12.65c-0.68,3.43,2.36,14.26,1.34,19.94c-0.52-2.98-2.42-8.89-2.34-12.22
							c-0.92-2-1.84-4.42-2.85-5.35C9.43,14.19,12.43,9.24,14.19,12.65"/>
						<path class="st8" d="M21.12,47.51c-0.01-0.01-0.01-0.01-0.01-0.02c-4-4.68-5.65-12.74-7.04-19.53
							c-1.1-5.39-2.04-9.99-3.86-11.44l-0.01-0.01c-0.23-0.3-0.36-0.65-0.41-1.02c-0.09-0.64,0.07-1.34,0.4-1.99
							c0.32-0.65,0.81-1.23,1.39-1.63c0.4-0.28,0.85-0.46,1.31-0.52l0.01,0.09c-0.45,0.05-0.88,0.24-1.27,0.5
							c-0.43,0.59-0.75,0.97-1.07,1.6c-0.89,1.78,0.96,1.69,1.69,2.66c1.84,1.48,1.99,6.33,3.1,11.74
							c1.39,6.78,1.84,14.83,5.82,19.49h0c0.01,0.01,0.01,0.01,0.01,0.02L21.12,47.51"/>
					</g>
					<g id="_x32__1_">
						<linearGradient id="SVGID_4_" gradientUnits="userSpaceOnUse" x1="18.413" y1="15.982" x2="21.4707" y2="20.4441">
							<stop  offset="0" style="stop-color:#EDE2D2"/>
							<stop  offset="0.4318" style="stop-color:#EFE7DA"/>
							<stop  offset="1" style="stop-color:#F0EADF"/>
						</linearGradient>
						<path class="st9" d="M20.97,11.25c-0.68,3.43,1.06,11.3,0.05,16.99c-0.52-2.98-2.42-8.89-2.34-12.22
							c-0.92-2-2.02-4.28-2.67-5.46C15.42,9.5,18.46,8.07,20.97,11.25"/>
						<path class="st8" d="M19.64,10.05c-0.87-0.59-1.22-0.56-1.97-0.46c-0.31,0.04-0.57,0.14-0.77,0.28
							c-0.2,0.14-0.33,0.34-0.37,0.58c-0.04,0.36-0.28,0.42,0.05,1.08l0,0c2.22,3.01,3.91,8,4.38,13.31
							c0.59,6.73-0.19,14.19,4.27,19.47l-0.07,0.06c-4.48-5.31-5.14-12.78-5.73-19.52c-0.47-5.3-0.9-10.15-3.1-13.14l0,0
							c-0.46-0.62-0.6-1.13-0.53-1.53c0.05-0.27,0.19-0.48,0.41-0.64c0.21-0.16,0.49-0.26,0.82-0.3c0.77-0.1,1.78,0.13,2.67,0.74
							L19.64,10.05"/>
					</g>
					<g id="_x33__1_">
						<linearGradient id="SVGID_5_" gradientUnits="userSpaceOnUse" x1="26.8191" y1="19.4358" x2="32.4829" y2="19.4358">
							<stop  offset="0" style="stop-color:#EDE2D2"/>
							<stop  offset="1" style="stop-color:#EEE5D6"/>
						</linearGradient>
						<path class="st10" d="M31.88,5.23c2.06,3.44-1.73,18.92-2.4,28.65C29.42,34.7,22.16,1.77,31.88,5.23"/>
						<path class="st11" d="M31.01,42.47c-2.35-6.12-4.87-16.74-5.26-25.12c-0.15-3.3,0.02-6.26,0.67-8.46
							c0.65-2.21,1.78-3.65,3.53-3.91c0.57-0.09,1.21-0.04,1.92,0.14l-0.03,0.09c-0.7-0.18-1.35-0.03-1.91,0.06
							c-1.46,0.33-1.29,1.25-2.25,3.32c-0.64,2.19-1,4.9-0.71,8.2c1.25,8.17,2.78,19.3,4.11,25.65L31.01,42.47"/>
					</g>
					<path id="_x34__1_" class="st12" d="M37.85,41.94c-0.09-0.66-0.18-1.34-0.28-2.03c-1.53-11.02-3.4-24.5,3.16-34.19l0.08,0.05
						C38.12,12.94,37.75,26.6,37.43,31c-0.14,1.9,0.08,5.98,0.23,8.89c0.09,0.68,0.19,1.36,0.28,2.03L37.85,41.94"/>
					<linearGradient id="_x35__2_" gradientUnits="userSpaceOnUse" x1="48.7339" y1="19.0561" x2="48.5871" y2="26.544">
						<stop  offset="0" style="stop-color:#BBA78B"/>
						<stop  offset="1" style="stop-color:#C8BBA1"/>
					</linearGradient>
					<path id="_x35__1_" class="st13" d="M44.97,43.36c0.23-5.71,0.84-12.39,1.39-18.17c1.38-7.3,5.09-10.75,6.06-18.13l0.02-0.09
						c-3.54,5.77-5.51,12.01-6.54,18.24c-1.02,6.23-1.1,12.45-0.83,18.16L44.97,43.36"/>
					<g id="_x36__1_">
						<linearGradient id="SVGID_6_" gradientUnits="userSpaceOnUse" x1="52.0716" y1="29.3033" x2="62.1277" y2="29.3033">
							<stop  offset="0" style="stop-color:#BEAF9A"/>
							<stop  offset="0.3025" style="stop-color:#C0B29E"/>
							<stop  offset="1" style="stop-color:#C3B6A2"/>
						</linearGradient>
						<path class="st14" d="M62.13,15.72c-2.95,9.16-6.49,18.11-10.06,27.17C52.16,30.89,58.6,16.46,62.13,15.72"/>
						<path class="st8" d="M50.38,46.93c1.56-1.63,1.67-4.13,1.81-7.03c0.12-2.68,0.26-5.7,1.57-8.69c0.03-0.11,0.09-0.3,0.16-0.56
							c0.87-3.03,4.35-15.21,8.41-14.99l-0.01,0.09c-3.19-0.12-7.24,11.93-8.2,14.93c-0.07,0.25-0.09,0.41-0.13,0.53l0,0.01
							c-1.14,2.97-1.21,6-1.59,8.67c-0.13,2.91-0.38,5.43-1.96,7.08L50.38,46.93"/>
					</g>
				</g>
			</g>
		</g>
		<g id="name_1_">
			<path class="st0" d="M90.21,70.38c0,0.19-0.12,0.44-0.38,0.76c-2.22,2.63-5.17,3.95-8.86,3.95c-3.76,0-6.82-1.28-9.16-3.84
				c-2.28-2.48-3.42-5.61-3.42-9.38c0-3.65,1.12-6.76,3.35-9.3c2.33-2.66,5.3-4,8.9-4c3.91,0,6.98,1.19,9.2,3.59
				c0.24,0.26,0.36,0.5,0.36,0.7c0,0.23-0.41,1.08-1.26,2.54c-0.84,1.47-1.37,2.29-1.58,2.47c-0.1,0.09-0.22,0.14-0.36,0.14
				c-0.06,0-0.36-0.24-0.91-0.72c-0.65-0.58-1.29-1.03-1.92-1.35c-0.95-0.48-1.95-0.72-2.97-0.72c-1.77,0-3.19,0.66-4.25,1.98
				c-0.98,1.22-1.47,2.74-1.47,4.55c0,1.82,0.49,3.35,1.47,4.6c1.06,1.34,2.48,2.02,4.25,2.02c1.05,0,2.05-0.23,2.99-0.69
				c0.61-0.3,1.24-0.72,1.89-1.26c0.53-0.46,0.82-0.68,0.88-0.68c0.12,0,0.24,0.07,0.36,0.2c0.19,0.22,0.72,0.97,1.58,2.25
				C89.77,69.51,90.21,70.24,90.21,70.38L90.21,70.38z"/>
			<path class="st0" d="M116.17,61.83c0,3.75-1.2,6.89-3.6,9.43c-2.45,2.57-5.56,3.86-9.31,3.86c-3.73,0-6.83-1.3-9.29-3.89
				c-2.42-2.54-3.62-5.67-3.62-9.4c0-3.74,1.21-6.88,3.62-9.43c2.47-2.61,5.56-3.91,9.29-3.91c3.71,0,6.8,1.3,9.27,3.91
				C114.96,54.98,116.17,58.12,116.17,61.83L116.17,61.83z M109.31,61.8c0-1.8-0.55-3.34-1.65-4.6c-1.15-1.32-2.61-1.98-4.4-1.98
				c-1.7,0-3.15,0.68-4.33,2.06c-1.15,1.32-1.72,2.84-1.72,4.56c0,1.84,0.54,3.37,1.61,4.6c1.14,1.29,2.61,1.93,4.44,1.93
				c1.7,0,3.15-0.68,4.35-2.04C108.74,65.03,109.31,63.52,109.31,61.8L109.31,61.8z"/>
			<path class="st0" d="M141.35,61.67c0,3.53-1.14,6.6-3.43,9.19c-2.02,2.32-4.85,3.54-8.49,3.66c-0.7,0.02-2.63,0.04-5.78,0.04
				c-0.59,0-1.48-0.02-2.67-0.06c-1.19-0.04-2.08-0.06-2.67-0.06c-0.35,0-0.53-0.14-0.53-0.41c0-1.32,0.06-3.31,0.15-5.96
				c0.11-2.65,0.15-4.63,0.15-5.96c0-1.38-0.05-3.45-0.15-6.21c-0.1-2.76-0.15-4.82-0.15-6.2c0-0.25,0.18-0.4,0.53-0.45
				c0.86-0.09,2.26-0.14,4.22-0.14c3.72,0,6.13,0.06,7.23,0.16c2.86,0.29,5.1,1.01,6.72,2.17c1.52,1.08,2.72,2.6,3.6,4.54
				C140.92,57.83,141.35,59.72,141.35,61.67L141.35,61.67z M134.41,61.67c0-2.03-0.61-3.69-1.83-4.98c-1.23-1.34-2.86-2-4.89-2
				c-1.86,0-2.79,0.25-2.79,0.74c0,0.71-0.01,1.78-0.04,3.2c-0.02,1.43-0.04,2.49-0.04,3.2c0,0.7,0.01,1.75,0.04,3.14
				c0.02,1.4,0.04,2.46,0.04,3.17c0,0.52,0.96,0.78,2.89,0.78c2.09,0,3.73-0.7,4.93-2.07C133.85,65.54,134.41,63.81,134.41,61.67
				L134.41,61.67z"/>
			<path class="st0" d="M161.54,68.85c0,0.52-0.1,1.46-0.31,2.85c-0.22,1.5-0.41,2.39-0.58,2.68c-0.14,0.23-0.35,0.34-0.6,0.34
				c-0.11,0-0.29-0.02-0.54-0.06c-0.88-0.12-3.45-0.18-7.72-0.18c-0.93,0-2.31-0.01-4.15-0.02c-1.83-0.01-3.21-0.02-4.12-0.02
				c-0.4,0-0.6-0.17-0.6-0.52c0-1.35,0.07-3.37,0.22-6.07c0.15-2.7,0.23-4.72,0.23-6.07c0-1.37-0.07-3.92-0.22-7.66
				c-0.04-0.96-0.1-2.39-0.2-4.31l-0.02-0.25c-0.02-0.28,0.12-0.41,0.45-0.41c0.9,0,2.24,0.02,4.03,0.07
				c1.79,0.05,3.13,0.07,4.03,0.07c0.88,0,2.21-0.02,3.98-0.07c1.77-0.04,3.1-0.07,3.99-0.07c0.62,0,0.99,0.23,1.09,0.7
				c0.06,0.28,0.15,1.11,0.28,2.52c0.12,1.4,0.19,2.25,0.19,2.55c0,0.25-0.12,0.38-0.36,0.38c-0.07,0-0.2-0.01-0.38-0.02
				c-3.22-0.26-6.1-0.4-8.66-0.4c-0.64,0-1.03,0.15-1.17,0.46c-0.06,0.14-0.09,0.6-0.09,1.38c0,0.82,0.12,1.36,0.36,1.62
				c0.2,0.23,0.59,0.34,1.17,0.34c0.12,0,0.36-0.01,0.7-0.02c0.35-0.02,0.64-0.02,0.87-0.02c1.52,0,3.06-0.04,4.62-0.13
				c0.14-0.01,0.46-0.04,1-0.09c0.41-0.04,0.74-0.07,0.98-0.07c0.29,0,0.44,0.14,0.44,0.41c0-0.25-0.11,0.67-0.33,2.76
				c-0.1,0.97-0.14,1.93-0.14,2.89c0,0.24-0.18,0.36-0.53,0.36c0,0-0.54-0.06-1.63-0.18c-0.69-0.07-2.26-0.1-4.71-0.1h-1.92
				c-0.49,0-0.79,0.12-0.87,0.36c-0.01,0.06-0.02,0.44-0.02,1.12c0,0.92,0.06,1.5,0.18,1.77c0.21,0.46,0.98,0.73,2.32,0.81
				c-0.02,0,0.86,0,2.65,0c0.64,0,1.59-0.06,2.86-0.17c1.26-0.11,2.21-0.17,2.83-0.17C161.41,68.2,161.54,68.42,161.54,68.85
				L161.54,68.85z"/>
			<path class="st15" d="M230,69.3c0,0.5-0.1,1.41-0.3,2.74c-0.21,1.45-0.4,2.3-0.56,2.58c-0.14,0.22-0.34,0.33-0.58,0.33
				c-0.1,0-0.28-0.02-0.53-0.05c-0.85-0.11-3.34-0.17-7.48-0.17c-0.9,0-2.24-0.01-4.02-0.02c-1.77-0.01-3.11-0.02-4-0.02
				c-0.39,0-0.58-0.17-0.58-0.5c0-1.3,0.07-3.24,0.22-5.84c0.15-2.59,0.22-4.54,0.22-5.84c0-1.32-0.07-3.77-0.21-7.37
				c-0.04-0.92-0.1-2.3-0.19-4.15l-0.02-0.24c-0.02-0.27,0.12-0.4,0.44-0.4c0.87,0,2.17,0.02,3.91,0.07
				c1.74,0.05,3.04,0.07,3.91,0.07c0.85,0,2.14-0.02,3.86-0.07c1.72-0.04,3.01-0.07,3.86-0.07c0.6,0,0.96,0.23,1.05,0.68
				c0.05,0.27,0.14,1.07,0.27,2.42c0.12,1.34,0.19,2.16,0.19,2.45c0,0.24-0.12,0.37-0.35,0.37c-0.07,0-0.19-0.01-0.37-0.02
				c-3.12-0.25-5.91-0.38-8.39-0.38c-0.62,0-1,0.15-1.14,0.44c-0.06,0.14-0.09,0.58-0.09,1.33c0,0.79,0.12,1.31,0.35,1.56
				c0.2,0.22,0.58,0.33,1.14,0.33c0.12,0,0.35-0.01,0.68-0.02c0.34-0.02,0.62-0.02,0.84-0.02c1.47,0,2.97-0.04,4.48-0.12
				c0.13-0.01,0.45-0.04,0.96-0.09c0.4-0.04,0.71-0.07,0.95-0.07c0.28,0,0.43,0.13,0.43,0.4c0-0.24-0.11,0.65-0.32,2.65
				c-0.1,0.93-0.14,1.85-0.14,2.78c0,0.23-0.17,0.35-0.51,0.35c0,0-0.53-0.06-1.58-0.18c-0.66-0.07-2.19-0.1-4.57-0.1h-1.86
				c-0.48,0-0.76,0.11-0.84,0.34c-0.01,0.06-0.02,0.42-0.02,1.08c0,0.88,0.06,1.45,0.17,1.7c0.2,0.44,0.95,0.7,2.25,0.78
				c-0.02,0,0.83,0,2.56,0c0.62,0,1.54-0.05,2.77-0.17c1.22-0.11,2.14-0.17,2.74-0.17C229.86,68.67,230,68.88,230,69.3L230,69.3z"/>
			<path class="st15" d="M249.34,56c0,0.12-0.12,0.19-0.35,0.19c-0.87,0-2.2-0.08-3.99-0.22c-1.79-0.15-3.12-0.23-4.01-0.23
				c-1.12,0-1.77,0.04-1.97,0.12c-0.43,0.2-0.65,0.75-0.65,1.67c0,1.1,0.28,1.72,0.84,1.87c0.24,0.06,0.59,0.09,1.07,0.09
				c0.81,0,2.02-0.05,3.62-0.13c1.61-0.09,2.82-0.13,3.63-0.13c0.39,0,0.58,1.02,0.58,3.05c0,1.77-0.07,2.8-0.19,3.09
				c-0.08,0.21-0.24,0.31-0.47,0.31c0.15,0-0.22-0.04-1.11-0.12c-1.25-0.12-3.15-0.17-5.69-0.17c-0.82,0-1.28,0.01-1.39,0.02
				c-0.59,0.09-0.89,0.34-0.89,0.75c0,1.64,0.07,3.53,0.21,5.67c0.12,1.93,0.17,2.79,0.17,2.58c0,0.3-0.37,0.47-1.1,0.52
				c0.2-0.01-0.32-0.02-1.56-0.02c-2.19,0-3.6-0.08-4.23-0.22c-0.34-0.08-0.51-0.26-0.51-0.54c0-1.29,0.04-3.21,0.13-5.79
				c0.09-2.57,0.13-4.5,0.13-5.79c0-1.53-0.07-3.45-0.21-5.76c-0.21-3.57-0.32-5.49-0.34-5.76l-0.02-0.21
				c-0.01-0.29,0.17-0.44,0.53-0.44c0.87,0,2.18,0.02,3.92,0.05c1.75,0.04,3.06,0.05,3.94,0.05c0.93,0,2.34-0.07,4.22-0.21
				c1.88-0.14,3.28-0.21,4.22-0.21c0.58,0,0.91,0.24,0.98,0.71c0,0.5,0.02,1.24,0.07,2.24c0.02,0.26,0.1,0.75,0.23,1.47
				C249.28,55.16,249.34,55.65,249.34,56L249.34,56z"/>
			<g>
				<path class="st15" d="M163.23,56.66c-1.02,3.44-0.74,6.99,0.83,10.53c1.62,3.66,4.06,6.22,7.27,7.62
					c3.28,1.44,6.74,1.34,10.28-0.29c3.46-1.6,5.7-4.17,6.66-7.65c0.06-0.23,0.07-0.37,0.07-0.45c-0.17-0.14-0.65-0.5-2.06-1.41
					c-1.44-0.92-2.07-1.29-2.34-1.44c-0.07,0.14-0.17,0.35-0.31,0.66c-0.42,0.91-0.89,1.68-1.39,2.29
					c-0.78,0.97-1.76,1.73-2.89,2.25c-1.94,0.9-3.86,0.86-5.7-0.12c-1.65-0.88-2.93-2.33-3.81-4.31c-0.87-1.96-1.08-3.88-0.62-5.71
					c0.51-2.02,1.75-3.5,3.68-4.39c1.11-0.51,2.31-0.75,3.57-0.69c0.85,0.05,1.74,0.23,2.68,0.53c0.38,0.12,0.62,0.19,0.77,0.23
					c0.06-0.25,0.19-0.96,0.37-2.9c0.2-2.11,0.17-2.7,0.14-2.85c-0.03-0.03-0.11-0.11-0.33-0.2c-1.35-0.58-2.76-0.87-4.23-0.87
					c-1.9,0-3.89,0.48-5.97,1.44C166.53,50.49,164.29,53.09,163.23,56.66z"/>
				<polygon class="st15" points="188.33,66.34 188.33,66.35 188.33,66.34 				"/>
			</g>
			<g>
				<path class="st15" d="M209.72,68.5c-0.12-2.52-0.18-4.41-0.18-5.67c0-1.34,0.05-3.35,0.16-6.04c0.11-2.69,0.17-4.69,0.17-6.02
					c0-0.28-0.17-0.41-0.51-0.41c-0.35,0-0.87,0.02-1.57,0.05c-0.7,0.04-1.21,0.05-1.55,0.05c-0.35,0-0.88-0.02-1.57-0.05
					c-0.7-0.03-1.22-0.05-1.56-0.05c-0.29,0-0.44,0.18-0.44,0.53c0,0.85,0.04,2.11,0.13,3.8c0.08,1.68,0.12,2.94,0.12,3.77
					c0,0.4-0.14,0.64-0.42,0.71c-0.4,0.09-1.85,0.14-4.36,0.14c-2.69,0-4.19-0.04-4.49-0.14c-0.22-0.07-0.33-0.31-0.33-0.71
					c0-0.87,0.06-2.17,0.19-3.9c0.13-1.73,0.19-3.03,0.19-3.9c0-0.21-0.1-0.31-0.3-0.31c-0.37,0-0.93,0.02-1.69,0.05
					c-0.75,0.04-1.32,0.05-1.7,0.05c-0.37,0-0.91-0.02-1.64-0.05c-0.73-0.03-1.28-0.05-1.64-0.05c-0.25,0-0.37,0.12-0.37,0.38
					c0,1.34,0.06,3.36,0.18,6.05c0.11,2.69,0.17,4.71,0.17,6.05c0,0.28,0,0.59-0.01,0.92c0.09,0.06,0.17,0.11,0.27,0.17
					c2.37,1.54,2.44,1.7,2.54,1.92c0.15,0.34,0.15,0.77,0,1.36c-0.6,2.19-1.66,4.05-3.14,5.58c-0.01,0.52-0.02,0.99-0.02,1.38
					c0,0.3,0.17,0.48,0.51,0.54c0.43,0.07,1.44,0.11,3.01,0.11c1.83,0,2.93-0.04,3.3-0.11c0.32-0.06,0.47-0.26,0.47-0.61
					c0-0.9-0.03-2.25-0.08-4.05c-0.06-1.79-0.09-3.15-0.09-4.05c0-0.46,0.13-0.72,0.38-0.78c0.41-0.09,1.84-0.14,4.28-0.14
					c2.44,0,3.85,0.05,4.25,0.14c0.26,0.07,0.39,0.33,0.39,0.78c0,0.92-0.05,2.29-0.13,4.12c-0.09,1.84-0.13,3.21-0.13,4.12
					c0,0.24,0.16,0.4,0.48,0.47c0.32,0.07,1.4,0.11,3.24,0.11c1.3,0,2.31-0.04,3.02-0.11c0.28-0.02,0.44-0.05,0.49-0.09
					c0.1-0.05,0.16-0.21,0.16-0.45C209.91,72.9,209.85,71.02,209.72,68.5z"/>
				<polygon class="st15" points="188.33,66.34 188.33,66.35 188.33,66.34 				"/>
			</g>
		</g>
	</g>
	<g>
		<g>
			<path class="st16" d="M117.83,98.34h-0.98c-0.11,0-0.2-0.03-0.27-0.09c-0.07-0.06-0.12-0.13-0.16-0.22l-0.88-2.35h-4.2
				l-0.88,2.35c-0.03,0.08-0.07,0.15-0.15,0.22c-0.07,0.06-0.16,0.1-0.28,0.1h-0.98l3.74-9.71h1.28L117.83,98.34z M115.19,94.74
				l-1.47-3.95c-0.04-0.12-0.09-0.25-0.14-0.41c-0.05-0.16-0.1-0.32-0.14-0.5c-0.09,0.37-0.19,0.67-0.28,0.91l-1.47,3.94H115.19z"/>
			<path class="st16" d="M119.73,92.48c0.14-0.17,0.3-0.32,0.46-0.45c0.16-0.14,0.33-0.25,0.51-0.35c0.18-0.1,0.37-0.17,0.57-0.22
				c0.2-0.05,0.42-0.08,0.66-0.08c0.36,0,0.68,0.06,0.96,0.19c0.28,0.13,0.51,0.3,0.69,0.53c0.19,0.23,0.32,0.5,0.42,0.82
				c0.1,0.32,0.14,0.68,0.14,1.07v4.37h-1.17v-4.37c0-0.52-0.11-0.92-0.34-1.21c-0.23-0.29-0.57-0.43-1.04-0.43
				c-0.34,0-0.66,0.08-0.96,0.26c-0.3,0.17-0.57,0.4-0.83,0.7v5.05h-1.17v-6.86h0.7c0.16,0,0.27,0.08,0.31,0.25L119.73,92.48z"/>
			<path class="st16" d="M135.04,97.27l-0.01,1.07h-5.76v-9.71h5.76v1.07h-4.5v3.22h3.64v1.03h-3.64v3.31H135.04z"/>
			<path class="st16" d="M141.6,88.37v9.98h-0.69c-0.16,0-0.27-0.08-0.31-0.25l-0.11-0.83c-0.28,0.35-0.6,0.64-0.97,0.85
				c-0.36,0.22-0.78,0.32-1.25,0.32c-0.38,0-0.72-0.08-1.03-0.23c-0.31-0.15-0.57-0.37-0.79-0.67c-0.22-0.29-0.39-0.66-0.5-1.1
				c-0.12-0.44-0.18-0.94-0.18-1.51c0-0.5,0.06-0.98,0.2-1.41c0.13-0.44,0.32-0.82,0.56-1.14c0.24-0.32,0.54-0.57,0.9-0.76
				c0.35-0.18,0.75-0.27,1.2-0.27c0.4,0,0.75,0.07,1.04,0.21c0.29,0.14,0.55,0.34,0.77,0.59v-3.8H141.6z M140.43,93.11
				c-0.22-0.3-0.45-0.51-0.71-0.63c-0.25-0.12-0.54-0.18-0.85-0.18c-0.61,0-1.08,0.23-1.42,0.68c-0.33,0.46-0.49,1.11-0.49,1.95
				c0,0.45,0.04,0.83,0.11,1.15c0.07,0.32,0.18,0.58,0.32,0.79c0.14,0.2,0.32,0.36,0.53,0.45c0.21,0.09,0.45,0.14,0.71,0.14
				c0.38,0,0.72-0.09,1-0.27c0.29-0.18,0.55-0.44,0.79-0.77V93.11z"/>
			<path class="st16" d="M148.74,91.48v6.86h-0.69c-0.17,0-0.27-0.08-0.31-0.25l-0.09-0.74c-0.29,0.33-0.61,0.59-0.97,0.8
				c-0.36,0.2-0.76,0.3-1.23,0.3c-0.36,0-0.68-0.06-0.96-0.19s-0.51-0.3-0.7-0.53s-0.33-0.5-0.42-0.82
				c-0.1-0.32-0.14-0.67-0.14-1.06v-4.38h1.16v4.38c0,0.52,0.12,0.92,0.34,1.21c0.23,0.28,0.58,0.42,1.05,0.42
				c0.34,0,0.67-0.08,0.96-0.25c0.3-0.17,0.57-0.4,0.83-0.7v-5.05H148.74z"/>
			<path class="st16" d="M155.05,92.7c-0.04,0.05-0.07,0.09-0.11,0.12c-0.03,0.03-0.08,0.04-0.14,0.04c-0.06,0-0.14-0.03-0.21-0.08
				c-0.08-0.06-0.18-0.12-0.29-0.19c-0.12-0.07-0.26-0.13-0.42-0.19c-0.17-0.06-0.37-0.08-0.62-0.08c-0.33,0-0.62,0.06-0.86,0.18
				c-0.25,0.12-0.46,0.29-0.62,0.52c-0.17,0.23-0.29,0.5-0.38,0.82c-0.08,0.32-0.13,0.68-0.13,1.08c0,0.41,0.05,0.79,0.14,1.11
				c0.09,0.32,0.22,0.59,0.39,0.81c0.17,0.22,0.37,0.39,0.61,0.5c0.24,0.11,0.5,0.17,0.8,0.17c0.28,0,0.51-0.04,0.7-0.11
				c0.18-0.07,0.33-0.15,0.45-0.23c0.12-0.08,0.22-0.16,0.3-0.23c0.08-0.07,0.16-0.1,0.24-0.1c0.1,0,0.17,0.04,0.22,0.11l0.32,0.44
				c-0.14,0.19-0.31,0.34-0.49,0.48c-0.18,0.13-0.38,0.24-0.59,0.33c-0.21,0.09-0.43,0.15-0.66,0.19c-0.23,0.04-0.46,0.06-0.7,0.06
				c-0.41,0-0.8-0.08-1.15-0.24c-0.36-0.16-0.66-0.39-0.92-0.69c-0.26-0.3-0.46-0.67-0.61-1.11c-0.15-0.44-0.22-0.94-0.22-1.5
				c0-0.51,0.07-0.98,0.21-1.42c0.14-0.44,0.34-0.81,0.6-1.12c0.26-0.31,0.59-0.56,0.97-0.73c0.38-0.18,0.83-0.27,1.33-0.27
				c0.47,0,0.88,0.08,1.23,0.23c0.35,0.15,0.67,0.38,0.94,0.66L155.05,92.7z"/>
			<path class="st16" d="M156.38,92.45c0.37-0.37,0.76-0.64,1.18-0.82c0.42-0.18,0.89-0.27,1.41-0.27c0.37,0,0.7,0.06,0.98,0.19
				c0.29,0.13,0.53,0.3,0.73,0.53c0.2,0.23,0.34,0.5,0.44,0.82c0.1,0.32,0.15,0.67,0.15,1.06v4.39h-0.51c-0.11,0-0.2-0.02-0.26-0.06
				c-0.06-0.04-0.11-0.12-0.14-0.23l-0.13-0.65c-0.17,0.17-0.34,0.31-0.51,0.44c-0.17,0.13-0.34,0.24-0.52,0.33
				c-0.18,0.09-0.38,0.15-0.58,0.2c-0.21,0.05-0.44,0.07-0.69,0.07c-0.25,0-0.5-0.04-0.72-0.11c-0.23-0.07-0.42-0.19-0.59-0.34
				c-0.17-0.15-0.3-0.34-0.4-0.56c-0.1-0.23-0.15-0.5-0.15-0.81c0-0.27,0.07-0.53,0.21-0.78c0.14-0.25,0.38-0.47,0.7-0.67
				c0.32-0.19,0.74-0.35,1.26-0.48c0.52-0.13,1.15-0.2,1.9-0.21v-0.54c0-0.53-0.11-0.94-0.33-1.21c-0.22-0.27-0.55-0.41-0.97-0.41
				c-0.29,0-0.53,0.04-0.72,0.11c-0.19,0.07-0.36,0.16-0.5,0.25c-0.14,0.09-0.26,0.18-0.37,0.25s-0.2,0.11-0.3,0.11
				c-0.08,0-0.15-0.02-0.2-0.06c-0.06-0.04-0.1-0.1-0.14-0.16L156.38,92.45z M160.13,95.25c-0.54,0.02-0.99,0.06-1.37,0.13
				c-0.38,0.07-0.68,0.16-0.92,0.28c-0.24,0.11-0.41,0.25-0.52,0.4c-0.11,0.15-0.16,0.32-0.16,0.51c0,0.18,0.03,0.34,0.08,0.47
				c0.06,0.13,0.13,0.24,0.23,0.32c0.1,0.08,0.21,0.14,0.35,0.18c0.13,0.04,0.28,0.06,0.43,0.06c0.2,0,0.39-0.02,0.56-0.06
				c0.17-0.04,0.33-0.11,0.48-0.19c0.15-0.08,0.29-0.18,0.43-0.29c0.14-0.11,0.27-0.24,0.4-0.39V95.25z"/>
			<path class="st16" d="M164.85,98.45c-0.52,0-0.92-0.15-1.2-0.45c-0.28-0.3-0.42-0.74-0.42-1.31v-4.2h-0.8
				c-0.07,0-0.13-0.02-0.18-0.06c-0.05-0.04-0.07-0.11-0.07-0.2v-0.48l1.08-0.14l0.27-2.12c0.01-0.07,0.04-0.12,0.09-0.17
				c0.05-0.04,0.11-0.06,0.18-0.06h0.59v2.37h1.91v0.87h-1.91v4.12c0,0.29,0.07,0.5,0.2,0.64c0.13,0.14,0.31,0.21,0.52,0.21
				c0.12,0,0.23-0.02,0.32-0.05c0.09-0.03,0.17-0.07,0.23-0.11c0.07-0.04,0.12-0.08,0.17-0.11c0.05-0.03,0.08-0.05,0.12-0.05
				c0.06,0,0.12,0.04,0.16,0.11l0.34,0.58c-0.2,0.19-0.44,0.35-0.72,0.46C165.45,98.4,165.15,98.45,164.85,98.45z"/>
		</g>
		<g>
			<path class="st16" d="M198.9,98.34h-1.27v-9.71h1.27V98.34z"/>
			<path class="st16" d="M201.88,92.48c0.14-0.17,0.3-0.32,0.46-0.45c0.16-0.14,0.33-0.25,0.51-0.35c0.18-0.1,0.37-0.17,0.57-0.22
				c0.2-0.05,0.42-0.08,0.66-0.08c0.36,0,0.68,0.06,0.96,0.19c0.28,0.13,0.51,0.3,0.69,0.53c0.19,0.23,0.32,0.5,0.42,0.82
				c0.1,0.32,0.14,0.68,0.14,1.07v4.37h-1.17v-4.37c0-0.52-0.11-0.92-0.34-1.21c-0.23-0.29-0.57-0.43-1.04-0.43
				c-0.34,0-0.66,0.08-0.96,0.26c-0.3,0.17-0.57,0.4-0.83,0.7v5.05h-1.17v-6.86h0.7c0.16,0,0.27,0.08,0.31,0.25L201.88,92.48z"/>
			<path class="st16" d="M209.41,89.33c0,0.12-0.02,0.23-0.07,0.33c-0.05,0.1-0.11,0.19-0.18,0.27c-0.08,0.08-0.16,0.14-0.27,0.19
				c-0.1,0.04-0.21,0.07-0.32,0.07s-0.22-0.02-0.32-0.07c-0.1-0.05-0.18-0.11-0.26-0.19c-0.07-0.08-0.13-0.17-0.18-0.27
				c-0.04-0.1-0.07-0.21-0.07-0.33c0-0.12,0.02-0.23,0.07-0.33c0.04-0.11,0.1-0.2,0.18-0.28c0.07-0.08,0.16-0.14,0.26-0.19
				c0.1-0.05,0.2-0.07,0.32-0.07s0.22,0.02,0.32,0.07c0.1,0.04,0.19,0.11,0.27,0.19c0.07,0.08,0.14,0.17,0.18,0.28
				C209.39,89.1,209.41,89.21,209.41,89.33z M209.17,91.48v6.86h-1.16v-6.86H209.17z"/>
		</g>
		<g>
			<path class="st16" d="M213.26,98.45c-0.52,0-0.92-0.15-1.2-0.45c-0.28-0.3-0.42-0.74-0.42-1.31v-4.2h-0.8
				c-0.07,0-0.13-0.02-0.18-0.06c-0.05-0.04-0.07-0.11-0.07-0.2v-0.48l1.08-0.14l0.27-2.12c0.01-0.07,0.04-0.12,0.09-0.17
				c0.05-0.04,0.11-0.06,0.18-0.06h0.59v2.37h1.91v0.87h-1.91v4.12c0,0.29,0.07,0.5,0.2,0.64c0.13,0.14,0.31,0.21,0.52,0.21
				c0.12,0,0.23-0.02,0.32-0.05c0.09-0.03,0.17-0.07,0.23-0.11c0.07-0.04,0.12-0.08,0.17-0.11c0.05-0.03,0.08-0.05,0.12-0.05
				c0.06,0,0.12,0.04,0.16,0.11l0.34,0.58c-0.2,0.19-0.44,0.35-0.72,0.46C213.85,98.4,213.56,98.45,213.26,98.45z"/>
		</g>
		<g>
			<path class="st16" d="M217.52,89.33c0,0.12-0.02,0.23-0.07,0.33c-0.05,0.1-0.11,0.19-0.18,0.27c-0.08,0.08-0.16,0.14-0.27,0.19
				c-0.1,0.04-0.21,0.07-0.32,0.07s-0.22-0.02-0.32-0.07c-0.1-0.05-0.18-0.11-0.26-0.19c-0.07-0.08-0.13-0.17-0.18-0.27
				c-0.04-0.1-0.07-0.21-0.07-0.33c0-0.12,0.02-0.23,0.07-0.33c0.04-0.11,0.1-0.2,0.18-0.28c0.07-0.08,0.16-0.14,0.26-0.19
				c0.1-0.05,0.2-0.07,0.32-0.07s0.22,0.02,0.32,0.07c0.1,0.04,0.19,0.11,0.27,0.19c0.07,0.08,0.14,0.17,0.18,0.28
				C217.49,89.1,217.52,89.21,217.52,89.33z M217.27,91.48v6.86h-1.16v-6.86H217.27z"/>
		</g>
		<g>
			<g>
				<path class="st16" d="M219.04,92.45c0.37-0.37,0.76-0.64,1.18-0.82s0.89-0.27,1.41-0.27c0.37,0,0.7,0.06,0.98,0.19
					c0.29,0.13,0.53,0.3,0.73,0.53c0.2,0.23,0.34,0.5,0.44,0.82c0.1,0.32,0.15,0.67,0.15,1.06v4.39h-0.51
					c-0.11,0-0.2-0.02-0.26-0.06c-0.06-0.04-0.11-0.12-0.14-0.23l-0.13-0.65c-0.17,0.17-0.34,0.31-0.51,0.44
					c-0.17,0.13-0.34,0.24-0.52,0.33c-0.18,0.09-0.38,0.15-0.58,0.2c-0.21,0.05-0.44,0.07-0.69,0.07c-0.25,0-0.5-0.04-0.72-0.11
					c-0.23-0.07-0.42-0.19-0.59-0.34c-0.17-0.15-0.3-0.34-0.4-0.56c-0.1-0.23-0.15-0.5-0.15-0.81c0-0.27,0.07-0.53,0.21-0.78
					c0.14-0.25,0.38-0.47,0.7-0.67c0.32-0.19,0.74-0.35,1.26-0.48c0.52-0.13,1.15-0.2,1.9-0.21v-0.54c0-0.53-0.11-0.94-0.33-1.21
					c-0.22-0.27-0.55-0.41-0.97-0.41c-0.29,0-0.53,0.04-0.72,0.11c-0.19,0.07-0.36,0.16-0.5,0.25c-0.14,0.09-0.26,0.18-0.37,0.25
					s-0.2,0.11-0.3,0.11c-0.08,0-0.15-0.02-0.2-0.06c-0.06-0.04-0.1-0.1-0.14-0.16L219.04,92.45z M222.79,95.25
					c-0.54,0.02-0.99,0.06-1.37,0.13c-0.38,0.07-0.68,0.16-0.92,0.28c-0.24,0.11-0.41,0.25-0.52,0.4c-0.11,0.15-0.16,0.32-0.16,0.51
					c0,0.18,0.03,0.34,0.08,0.47c0.06,0.13,0.13,0.24,0.23,0.32c0.1,0.08,0.21,0.14,0.35,0.18c0.13,0.04,0.28,0.06,0.43,0.06
					c0.2,0,0.39-0.02,0.56-0.06c0.17-0.04,0.33-0.11,0.48-0.19c0.15-0.08,0.29-0.18,0.43-0.29c0.14-0.11,0.27-0.24,0.4-0.39V95.25z"
					/>
				<path class="st16" d="M227.51,98.45c-0.52,0-0.92-0.15-1.2-0.45c-0.28-0.3-0.42-0.74-0.42-1.31v-4.2h-0.8
					c-0.07,0-0.13-0.02-0.18-0.06c-0.05-0.04-0.07-0.11-0.07-0.2v-0.48l1.08-0.14l0.27-2.12c0.01-0.07,0.04-0.12,0.09-0.17
					c0.05-0.04,0.11-0.06,0.18-0.06h0.59v2.37h1.91v0.87h-1.91v4.12c0,0.29,0.07,0.5,0.2,0.64c0.13,0.14,0.31,0.21,0.52,0.21
					c0.12,0,0.23-0.02,0.32-0.05c0.09-0.03,0.17-0.07,0.23-0.11c0.07-0.04,0.12-0.08,0.17-0.11c0.05-0.03,0.08-0.05,0.12-0.05
					c0.06,0,0.12,0.04,0.16,0.11l0.34,0.58c-0.2,0.19-0.44,0.35-0.72,0.46C228.1,98.4,227.81,98.45,227.51,98.45z"/>
			</g>
			<g>
				<path class="st16" d="M231.81,89.33c0,0.12-0.02,0.23-0.07,0.33c-0.05,0.1-0.11,0.19-0.18,0.27c-0.08,0.08-0.16,0.14-0.27,0.19
					c-0.1,0.04-0.21,0.07-0.32,0.07s-0.22-0.02-0.32-0.07c-0.1-0.05-0.18-0.11-0.26-0.19c-0.07-0.08-0.13-0.17-0.18-0.27
					c-0.04-0.1-0.07-0.21-0.07-0.33c0-0.12,0.02-0.23,0.07-0.33c0.04-0.11,0.1-0.2,0.18-0.28c0.07-0.08,0.16-0.14,0.26-0.19
					c0.1-0.05,0.2-0.07,0.32-0.07s0.22,0.02,0.32,0.07c0.1,0.04,0.19,0.11,0.27,0.19c0.07,0.08,0.14,0.17,0.18,0.28
					C231.79,89.1,231.81,89.21,231.81,89.33z M231.56,91.48v6.86h-1.16v-6.86H231.56z"/>
				<path class="st16" d="M239,91.48l-2.7,6.86h-1.05l-2.7-6.86h0.95c0.1,0,0.17,0.03,0.23,0.07c0.06,0.05,0.1,0.11,0.12,0.18
					l1.68,4.41c0.05,0.17,0.1,0.33,0.14,0.49c0.04,0.16,0.08,0.32,0.11,0.47c0.04-0.16,0.07-0.32,0.11-0.47
					c0.04-0.16,0.09-0.32,0.14-0.49l1.7-4.41c0.03-0.07,0.07-0.13,0.13-0.18c0.06-0.05,0.13-0.07,0.22-0.07H239z"/>
				<path class="st16" d="M245.12,97.38c-0.14,0.18-0.31,0.34-0.51,0.47c-0.2,0.13-0.41,0.24-0.64,0.33
					c-0.23,0.08-0.46,0.15-0.71,0.19c-0.24,0.04-0.48,0.06-0.72,0.06c-0.46,0-0.88-0.08-1.26-0.24c-0.38-0.16-0.72-0.39-1-0.7
					c-0.28-0.31-0.5-0.69-0.65-1.15c-0.16-0.46-0.24-0.98-0.24-1.57c0-0.48,0.07-0.92,0.21-1.34c0.14-0.41,0.34-0.77,0.61-1.08
					c0.27-0.3,0.59-0.54,0.97-0.72c0.38-0.17,0.81-0.26,1.29-0.26c0.39,0,0.76,0.07,1.1,0.21c0.34,0.14,0.63,0.34,0.87,0.6
					c0.25,0.26,0.44,0.58,0.58,0.96c0.14,0.38,0.21,0.82,0.21,1.3c0,0.19-0.02,0.32-0.06,0.38c-0.04,0.06-0.11,0.09-0.22,0.09h-4.42
					c0.01,0.44,0.07,0.81,0.17,1.13c0.1,0.32,0.24,0.59,0.43,0.8c0.18,0.21,0.4,0.37,0.65,0.48c0.25,0.11,0.54,0.16,0.85,0.16
					c0.29,0,0.54-0.03,0.75-0.1c0.21-0.07,0.39-0.15,0.54-0.23c0.15-0.08,0.28-0.15,0.38-0.23c0.1-0.07,0.19-0.1,0.26-0.1
					c0.1,0,0.17,0.04,0.22,0.11L245.12,97.38z M244.18,94.16c0-0.28-0.04-0.54-0.11-0.77c-0.08-0.23-0.19-0.44-0.33-0.6
					c-0.15-0.17-0.32-0.3-0.53-0.39c-0.21-0.09-0.45-0.14-0.71-0.14c-0.56,0-1,0.17-1.32,0.5c-0.32,0.34-0.53,0.8-0.6,1.4H244.18z"
					/>
			</g>
		</g>
		<g>
			<path class="st16" d="M173.48,91.37c0.48,0,0.92,0.08,1.31,0.25c0.39,0.17,0.72,0.41,0.99,0.71c0.28,0.31,0.48,0.68,0.63,1.11
				c0.15,0.44,0.22,0.92,0.22,1.46c0,0.54-0.07,1.03-0.22,1.46c-0.15,0.44-0.36,0.81-0.63,1.11c-0.27,0.31-0.6,0.54-0.99,0.71
				c-0.39,0.16-0.82,0.25-1.31,0.25c-0.49,0-0.93-0.08-1.32-0.25c-0.39-0.16-0.72-0.4-0.99-0.71c-0.28-0.31-0.49-0.68-0.63-1.11
				c-0.15-0.43-0.22-0.92-0.22-1.46c0-0.54,0.07-1.02,0.22-1.46c0.14-0.44,0.36-0.81,0.63-1.11c0.27-0.31,0.6-0.55,0.99-0.71
				C172.55,91.46,173,91.37,173.48,91.37z M173.48,97.5c0.65,0,1.14-0.23,1.46-0.68c0.32-0.46,0.48-1.09,0.48-1.9
				c0-0.82-0.16-1.45-0.48-1.91c-0.32-0.46-0.81-0.68-1.46-0.68c-0.33,0-0.62,0.06-0.86,0.18c-0.24,0.12-0.45,0.29-0.61,0.51
				c-0.16,0.22-0.29,0.49-0.37,0.82c-0.08,0.32-0.12,0.69-0.12,1.09c0,0.81,0.16,1.45,0.49,1.9
				C172.33,97.27,172.82,97.5,173.48,97.5z"/>
			<path class="st16" d="M179.06,92.48c0.14-0.17,0.3-0.32,0.46-0.45c0.16-0.14,0.33-0.25,0.51-0.35c0.18-0.1,0.37-0.17,0.57-0.22
				c0.2-0.05,0.42-0.08,0.66-0.08c0.36,0,0.68,0.06,0.96,0.19c0.28,0.13,0.51,0.3,0.69,0.53c0.19,0.23,0.32,0.5,0.42,0.82
				c0.1,0.32,0.14,0.68,0.14,1.07v4.37h-1.17v-4.37c0-0.52-0.11-0.92-0.34-1.21c-0.23-0.29-0.57-0.43-1.04-0.43
				c-0.34,0-0.66,0.08-0.96,0.26c-0.3,0.17-0.57,0.4-0.83,0.7v5.05h-1.17v-6.86h0.7c0.16,0,0.27,0.08,0.31,0.25L179.06,92.48z"/>
			<path class="st16" d="M184.95,92.45c0.37-0.37,0.76-0.64,1.18-0.82c0.42-0.18,0.89-0.27,1.41-0.27c0.37,0,0.7,0.06,0.98,0.19
				c0.29,0.13,0.53,0.3,0.73,0.53s0.34,0.5,0.44,0.82c0.1,0.32,0.15,0.67,0.15,1.06v4.39h-0.51c-0.11,0-0.2-0.02-0.26-0.06
				c-0.06-0.04-0.11-0.12-0.14-0.23l-0.13-0.65c-0.17,0.17-0.34,0.31-0.51,0.44c-0.17,0.13-0.34,0.24-0.52,0.33
				c-0.18,0.09-0.38,0.15-0.58,0.2c-0.21,0.05-0.44,0.07-0.69,0.07c-0.25,0-0.5-0.04-0.72-0.11c-0.23-0.07-0.42-0.19-0.59-0.34
				c-0.17-0.15-0.3-0.34-0.4-0.56c-0.1-0.23-0.15-0.5-0.15-0.81c0-0.27,0.07-0.53,0.21-0.78c0.14-0.25,0.38-0.47,0.7-0.67
				c0.32-0.19,0.74-0.35,1.26-0.48c0.52-0.13,1.15-0.2,1.9-0.21v-0.54c0-0.53-0.11-0.94-0.33-1.21c-0.22-0.27-0.55-0.41-0.97-0.41
				c-0.29,0-0.53,0.04-0.72,0.11c-0.19,0.07-0.36,0.16-0.5,0.25c-0.14,0.09-0.26,0.18-0.37,0.25s-0.2,0.11-0.3,0.11
				c-0.08,0-0.15-0.02-0.2-0.06c-0.06-0.04-0.1-0.1-0.14-0.16L184.95,92.45z M188.7,95.25c-0.54,0.02-0.99,0.06-1.37,0.13
				c-0.38,0.07-0.68,0.16-0.92,0.28c-0.24,0.11-0.41,0.25-0.52,0.4c-0.11,0.15-0.16,0.32-0.16,0.51c0,0.18,0.03,0.34,0.08,0.47
				c0.06,0.13,0.13,0.24,0.23,0.32c0.1,0.08,0.21,0.14,0.35,0.18c0.13,0.04,0.28,0.06,0.43,0.06c0.2,0,0.39-0.02,0.56-0.06
				c0.17-0.04,0.33-0.11,0.48-0.19c0.15-0.08,0.29-0.18,0.43-0.29c0.14-0.11,0.27-0.24,0.4-0.39V95.25z"/>
			<path class="st16" d="M192.67,88.37v9.98h-1.16v-9.98H192.67z"/>
		</g>
		<g>
			<path class="st16" d="M169.11,89.33c0,0.12-0.02,0.23-0.07,0.33c-0.05,0.1-0.11,0.19-0.18,0.27c-0.08,0.08-0.16,0.14-0.27,0.19
				c-0.1,0.04-0.21,0.07-0.32,0.07s-0.22-0.02-0.32-0.07c-0.1-0.05-0.18-0.11-0.26-0.19c-0.07-0.08-0.13-0.17-0.18-0.27
				c-0.04-0.1-0.07-0.21-0.07-0.33c0-0.12,0.02-0.23,0.07-0.33c0.04-0.11,0.1-0.2,0.18-0.28c0.07-0.08,0.16-0.14,0.26-0.19
				c0.1-0.05,0.2-0.07,0.32-0.07s0.22,0.02,0.32,0.07c0.1,0.04,0.19,0.11,0.27,0.19c0.07,0.08,0.14,0.17,0.18,0.28
				C169.08,89.1,169.11,89.21,169.11,89.33z M168.86,91.48v6.86h-1.16v-6.86H168.86z"/>
		</g>
	</g>
</g>
</svg>
