<?xml version="1.0" encoding="UTF-8"?>
<svg xmlns="http://www.w3.org/2000/svg" xmlns:xlink="http://www.w3.org/1999/xlink" width="16pt" height="16pt" viewBox="0 0 16 16" version="1.1">
<defs>
<linearGradient id="linear0" gradientUnits="userSpaceOnUse" x1="86" y1="67.75994" x2="86" y2="98.69038" gradientTransform="matrix(0.25,0,0,0.25,0,0)">
<stop offset="0" style="stop-color:rgb(54.117647%,70.588235%,100%);stop-opacity:1;"/>
<stop offset="1" style="stop-color:rgb(89.411765%,57.254902%,100%);stop-opacity:1;"/>
</linearGradient>
<linearGradient id="linear1" gradientUnits="userSpaceOnUse" x1="86" y1="19.95738" x2="86" y2="143.62" gradientTransform="matrix(0.0930233,0,0,0.0930233,0,0)">
<stop offset="0" style="stop-color:rgb(10.196078%,42.745098%,100%);stop-opacity:1;"/>
<stop offset="1" style="stop-color:rgb(78.431373%,13.333333%,100%);stop-opacity:1;"/>
</linearGradient>
</defs>
<g id="surface6160051">
<path style=" stroke:none;fill-rule:nonzero;fill:url(#linear0);" d="M 9.5 8 C 9.5 8.828125 8.828125 9.5 8 9.5 C 7.171875 9.5 6.5 8.828125 6.5 8 C 6.5 7.171875 7.171875 6.5 8 6.5 C 8.828125 6.5 9.5 7.171875 9.5 8 Z M 9.5 8 "/>
<path style=" stroke:none;fill-rule:nonzero;fill:url(#linear1);" d="M 14.5 8 C 14.5 7.058594 13.4375 6.246094 11.785156 5.753906 C 11.84375 5.496094 11.886719 5.242188 11.917969 5 C 12.082031 3.628906 11.796875 2.667969 11.113281 2.296875 C 10.433594 1.921875 9.472656 2.203125 8.40625 3.082031 C 8.269531 3.195312 8.136719 3.316406 8 3.445312 C 7.863281 3.316406 7.730469 3.195312 7.59375 3.082031 C 6.527344 2.203125 5.566406 1.921875 4.886719 2.296875 C 4.203125 2.667969 3.917969 3.628906 4.082031 5 C 4.109375 5.242188 4.15625 5.496094 4.214844 5.753906 C 2.5625 6.246094 1.5 7.058594 1.5 8 C 1.5 8.941406 2.5625 9.753906 4.214844 10.246094 C 4.15625 10.503906 4.113281 10.757812 4.082031 11 C 3.917969 12.371094 4.203125 13.332031 4.886719 13.703125 C 5.082031 13.8125 5.300781 13.867188 5.542969 13.867188 C 6.132812 13.867188 6.835938 13.542969 7.59375 12.917969 C 7.730469 12.804688 7.863281 12.683594 8 12.554688 C 8.136719 12.683594 8.269531 12.804688 8.40625 12.917969 C 9.164062 13.542969 9.867188 13.867188 10.457031 13.867188 C 10.699219 13.867188 10.917969 13.8125 11.113281 13.703125 C 11.796875 13.332031 12.082031 12.371094 11.917969 11 C 11.890625 10.757812 11.84375 10.503906 11.785156 10.246094 C 13.4375 9.753906 14.5 8.941406 14.5 8 Z M 8.726562 3.464844 C 9.609375 2.738281 10.390625 2.46875 10.875 2.734375 C 11.359375 2.996094 11.558594 3.800781 11.421875 4.9375 C 11.394531 5.15625 11.351562 5.386719 11.304688 5.621094 C 10.773438 5.492188 10.195312 5.390625 9.582031 5.328125 C 9.191406 4.761719 8.777344 4.242188 8.355469 3.796875 C 8.476562 3.679688 8.601562 3.570312 8.726562 3.464844 Z M 9.976562 9.078125 C 9.761719 9.46875 9.535156 9.84375 9.300781 10.195312 C 8.886719 10.230469 8.453125 10.25 8 10.25 C 7.546875 10.25 7.113281 10.230469 6.699219 10.195312 C 6.464844 9.839844 6.238281 9.46875 6.023438 9.078125 C 5.828125 8.71875 5.648438 8.359375 5.488281 8 C 5.648438 7.640625 5.828125 7.28125 6.023438 6.921875 C 6.238281 6.53125 6.464844 6.15625 6.699219 5.804688 C 7.113281 5.769531 7.546875 5.75 8 5.75 C 8.453125 5.75 8.886719 5.769531 9.300781 5.804688 C 9.535156 6.160156 9.761719 6.53125 9.976562 6.921875 C 10.171875 7.28125 10.351562 7.640625 10.511719 8 C 10.351562 8.359375 10.171875 8.71875 9.976562 9.078125 Z M 10.769531 8.621094 C 10.941406 9.054688 11.078125 9.484375 11.1875 9.894531 C 10.800781 9.988281 10.386719 10.070312 9.9375 10.128906 C 10.101562 9.867188 10.261719 9.597656 10.414062 9.316406 C 10.539062 9.085938 10.65625 8.855469 10.769531 8.621094 Z M 8 11.851562 C 7.683594 11.515625 7.371094 11.136719 7.066406 10.722656 C 7.371094 10.742188 7.683594 10.75 8 10.75 C 8.316406 10.75 8.628906 10.742188 8.933594 10.722656 C 8.628906 11.136719 8.316406 11.515625 8 11.851562 Z M 6.0625 10.128906 C 5.613281 10.070312 5.195312 9.988281 4.8125 9.894531 C 4.921875 9.484375 5.058594 9.054688 5.230469 8.621094 C 5.34375 8.855469 5.460938 9.085938 5.585938 9.316406 C 5.738281 9.597656 5.898438 9.867188 6.0625 10.128906 Z M 5.230469 7.378906 C 5.058594 6.945312 4.921875 6.515625 4.8125 6.105469 C 5.199219 6.011719 5.613281 5.929688 6.0625 5.871094 C 5.898438 6.132812 5.738281 6.402344 5.585938 6.683594 C 5.460938 6.914062 5.34375 7.144531 5.230469 7.378906 Z M 8 4.148438 C 8.316406 4.484375 8.628906 4.863281 8.933594 5.277344 C 8.628906 5.257812 8.316406 5.25 8 5.25 C 7.683594 5.25 7.371094 5.257812 7.066406 5.277344 C 7.371094 4.863281 7.683594 4.484375 8 4.148438 Z M 10.414062 6.683594 C 10.261719 6.402344 10.101562 6.132812 9.9375 5.871094 C 10.386719 5.929688 10.804688 6.011719 11.1875 6.105469 C 11.078125 6.515625 10.941406 6.945312 10.769531 7.378906 C 10.65625 7.144531 10.539062 6.914062 10.414062 6.683594 Z M 4.578125 4.9375 C 4.441406 3.800781 4.640625 2.996094 5.125 2.734375 C 5.246094 2.667969 5.386719 2.632812 5.546875 2.632812 C 6.011719 2.632812 6.613281 2.921875 7.273438 3.464844 C 7.398438 3.570312 7.523438 3.679688 7.648438 3.796875 C 7.222656 4.242188 6.808594 4.761719 6.417969 5.328125 C 5.804688 5.390625 5.226562 5.492188 4.695312 5.621094 C 4.648438 5.386719 4.605469 5.160156 4.578125 4.9375 Z M 2 8 C 2 7.351562 2.867188 6.675781 4.328125 6.234375 C 4.480469 6.804688 4.6875 7.398438 4.945312 8 C 4.6875 8.601562 4.480469 9.195312 4.328125 9.765625 C 2.867188 9.324219 2 8.648438 2 8 Z M 7.273438 12.535156 C 6.390625 13.261719 5.609375 13.53125 5.125 13.265625 C 4.640625 13.003906 4.441406 12.199219 4.578125 11.0625 C 4.605469 10.84375 4.648438 10.613281 4.695312 10.378906 C 5.226562 10.507812 5.804688 10.609375 6.417969 10.671875 C 6.808594 11.238281 7.222656 11.757812 7.644531 12.203125 C 7.523438 12.320312 7.398438 12.429688 7.273438 12.535156 Z M 11.421875 11.0625 C 11.558594 12.199219 11.359375 13.003906 10.875 13.265625 C 10.390625 13.53125 9.609375 13.261719 8.726562 12.535156 C 8.601562 12.429688 8.476562 12.320312 8.351562 12.203125 C 8.777344 11.757812 9.191406 11.238281 9.582031 10.671875 C 10.195312 10.609375 10.773438 10.507812 11.304688 10.378906 C 11.351562 10.613281 11.394531 10.839844 11.421875 11.0625 Z M 11.671875 9.765625 C 11.519531 9.195312 11.3125 8.601562 11.054688 8 C 11.3125 7.398438 11.519531 6.804688 11.671875 6.234375 C 13.132812 6.675781 14 7.351562 14 8 C 14 8.648438 13.132812 9.324219 11.671875 9.765625 Z M 11.671875 9.765625 "/>
<path style=" stroke:none;fill-rule:nonzero;fill:rgb(44.705882%,0%,79.607843%);fill-opacity:1;" d="M 4.832031 15.949219 L 4.445312 15.226562 L 4.027344 15.226562 L 4.027344 15.949219 L 3.789062 15.949219 L 3.789062 14.164062 L 4.382812 14.164062 C 4.582031 14.164062 4.738281 14.210938 4.84375 14.300781 C 4.953125 14.394531 5.007812 14.527344 5.007812 14.703125 C 5.007812 14.8125 4.976562 14.910156 4.917969 14.992188 C 4.859375 15.074219 4.773438 15.136719 4.667969 15.175781 L 5.085938 15.9375 L 5.085938 15.949219 Z M 4.027344 14.359375 L 4.027344 15.035156 L 4.386719 15.035156 C 4.503906 15.035156 4.597656 15.007812 4.667969 14.945312 C 4.734375 14.882812 4.769531 14.804688 4.769531 14.703125 C 4.769531 14.59375 4.738281 14.507812 4.671875 14.449219 C 4.605469 14.390625 4.511719 14.359375 4.386719 14.359375 Z M 5.851562 15.976562 C 5.671875 15.976562 5.527344 15.914062 5.414062 15.796875 C 5.300781 15.679688 5.246094 15.523438 5.246094 15.324219 L 5.246094 15.28125 C 5.246094 15.148438 5.269531 15.03125 5.320312 14.929688 C 5.371094 14.828125 5.441406 14.746094 5.53125 14.6875 C 5.621094 14.628906 5.71875 14.597656 5.824219 14.597656 C 5.996094 14.597656 6.132812 14.65625 6.226562 14.769531 C 6.320312 14.882812 6.371094 15.046875 6.371094 15.257812 L 6.371094 15.351562 L 5.472656 15.351562 C 5.472656 15.484375 5.511719 15.589844 5.585938 15.667969 C 5.660156 15.75 5.75 15.789062 5.863281 15.789062 C 5.945312 15.789062 6.011719 15.773438 6.070312 15.742188 C 6.125 15.707031 6.171875 15.664062 6.214844 15.609375 L 6.351562 15.71875 C 6.242188 15.890625 6.074219 15.976562 5.851562 15.976562 Z M 5.824219 14.785156 C 5.734375 14.785156 5.65625 14.820312 5.59375 14.886719 C 5.53125 14.953125 5.492188 15.046875 5.480469 15.164062 L 6.144531 15.164062 L 6.144531 15.148438 C 6.136719 15.035156 6.105469 14.945312 6.050781 14.882812 C 5.996094 14.816406 5.917969 14.785156 5.824219 14.785156 Z M 7.691406 15.949219 L 7.453125 15.949219 C 7.4375 15.925781 7.429688 15.878906 7.421875 15.8125 C 7.316406 15.921875 7.1875 15.976562 7.042969 15.976562 C 6.910156 15.976562 6.804688 15.9375 6.71875 15.863281 C 6.636719 15.789062 6.59375 15.695312 6.59375 15.582031 C 6.59375 15.445312 6.648438 15.335938 6.753906 15.261719 C 6.855469 15.183594 7.003906 15.144531 7.195312 15.144531 L 7.417969 15.144531 L 7.417969 15.042969 C 7.417969 14.960938 7.390625 14.898438 7.34375 14.851562 C 7.296875 14.804688 7.226562 14.78125 7.136719 14.78125 C 7.054688 14.78125 6.984375 14.804688 6.929688 14.84375 C 6.878906 14.882812 6.851562 14.933594 6.851562 14.992188 L 6.621094 14.992188 C 6.621094 14.925781 6.644531 14.863281 6.691406 14.800781 C 6.738281 14.738281 6.800781 14.6875 6.882812 14.652344 C 6.964844 14.617188 7.050781 14.597656 7.148438 14.597656 C 7.300781 14.597656 7.421875 14.636719 7.507812 14.714844 C 7.59375 14.789062 7.640625 14.894531 7.644531 15.03125 L 7.644531 15.640625 C 7.644531 15.761719 7.660156 15.859375 7.691406 15.929688 Z M 7.074219 15.777344 C 7.144531 15.777344 7.214844 15.757812 7.277344 15.722656 C 7.339844 15.6875 7.386719 15.636719 7.417969 15.578125 L 7.417969 15.308594 L 7.238281 15.308594 C 6.960938 15.308594 6.820312 15.386719 6.820312 15.550781 C 6.820312 15.621094 6.84375 15.679688 6.890625 15.71875 C 6.941406 15.757812 7 15.777344 7.074219 15.777344 Z M 8.53125 15.789062 C 8.613281 15.789062 8.683594 15.765625 8.742188 15.714844 C 8.804688 15.667969 8.835938 15.605469 8.84375 15.53125 L 9.058594 15.53125 C 9.054688 15.609375 9.027344 15.679688 8.980469 15.75 C 8.929688 15.820312 8.867188 15.875 8.785156 15.914062 C 8.707031 15.953125 8.621094 15.976562 8.53125 15.976562 C 8.351562 15.976562 8.207031 15.914062 8.101562 15.792969 C 7.992188 15.671875 7.941406 15.507812 7.941406 15.300781 L 7.941406 15.261719 C 7.941406 15.132812 7.964844 15.019531 8.011719 14.917969 C 8.058594 14.816406 8.125 14.738281 8.214844 14.683594 C 8.304688 14.628906 8.410156 14.597656 8.53125 14.597656 C 8.679688 14.597656 8.800781 14.644531 8.902344 14.734375 C 9 14.824219 9.050781 14.9375 9.058594 15.078125 L 8.84375 15.078125 C 8.835938 14.996094 8.804688 14.925781 8.746094 14.867188 C 8.6875 14.8125 8.617188 14.785156 8.53125 14.785156 C 8.414062 14.785156 8.324219 14.828125 8.261719 14.910156 C 8.199219 14.992188 8.167969 15.113281 8.167969 15.269531 L 8.167969 15.3125 C 8.167969 15.464844 8.199219 15.582031 8.261719 15.667969 C 8.324219 15.75 8.414062 15.789062 8.53125 15.789062 Z M 9.394531 14.300781 L 9.621094 14.300781 L 9.621094 14.625 L 9.871094 14.625 L 9.871094 14.800781 L 9.621094 14.800781 L 9.621094 15.621094 C 9.621094 15.675781 9.632812 15.714844 9.65625 15.742188 C 9.675781 15.769531 9.714844 15.78125 9.765625 15.78125 C 9.792969 15.78125 9.828125 15.777344 9.875 15.765625 L 9.875 15.949219 C 9.816406 15.96875 9.757812 15.976562 9.699219 15.976562 C 9.601562 15.976562 9.523438 15.945312 9.472656 15.882812 C 9.417969 15.820312 9.394531 15.734375 9.394531 15.621094 L 9.394531 14.800781 L 9.152344 14.800781 L 9.152344 14.625 L 9.394531 14.625 Z M 11.539062 15.433594 L 11.539062 14.164062 L 11.777344 14.164062 L 11.777344 15.429688 C 11.777344 15.601562 11.726562 15.734375 11.621094 15.832031 C 11.519531 15.925781 11.382812 15.976562 11.210938 15.976562 C 11.035156 15.976562 10.894531 15.929688 10.796875 15.839844 C 10.699219 15.75 10.648438 15.621094 10.648438 15.457031 L 10.882812 15.457031 C 10.882812 15.558594 10.914062 15.640625 10.96875 15.695312 C 11.023438 15.753906 11.105469 15.78125 11.210938 15.78125 C 11.308594 15.78125 11.386719 15.75 11.449219 15.691406 C 11.507812 15.628906 11.539062 15.542969 11.539062 15.433594 Z M 12.914062 15.597656 C 12.914062 15.539062 12.890625 15.488281 12.84375 15.457031 C 12.796875 15.421875 12.71875 15.390625 12.601562 15.367188 C 12.488281 15.34375 12.398438 15.3125 12.328125 15.28125 C 12.261719 15.246094 12.210938 15.203125 12.179688 15.15625 C 12.148438 15.109375 12.132812 15.054688 12.132812 14.988281 C 12.132812 14.878906 12.175781 14.789062 12.269531 14.710938 C 12.363281 14.636719 12.480469 14.597656 12.621094 14.597656 C 12.773438 14.597656 12.894531 14.636719 12.988281 14.714844 C 13.082031 14.792969 13.128906 14.894531 13.128906 15.015625 L 12.902344 15.015625 C 12.902344 14.953125 12.875 14.898438 12.820312 14.851562 C 12.769531 14.808594 12.703125 14.785156 12.621094 14.785156 C 12.539062 14.785156 12.476562 14.804688 12.429688 14.839844 C 12.382812 14.875 12.359375 14.921875 12.359375 14.980469 C 12.359375 15.035156 12.378906 15.078125 12.421875 15.105469 C 12.46875 15.132812 12.546875 15.160156 12.65625 15.183594 C 12.773438 15.210938 12.863281 15.238281 12.933594 15.273438 C 13.003906 15.308594 13.054688 15.351562 13.089844 15.402344 C 13.125 15.453125 13.140625 15.511719 13.140625 15.582031 C 13.140625 15.703125 13.09375 15.796875 13 15.867188 C 12.902344 15.9375 12.78125 15.976562 12.628906 15.976562 C 12.523438 15.976562 12.429688 15.957031 12.347656 15.917969 C 12.265625 15.882812 12.203125 15.828125 12.15625 15.761719 C 12.109375 15.695312 12.085938 15.621094 12.085938 15.542969 L 12.3125 15.542969 C 12.316406 15.617188 12.347656 15.679688 12.402344 15.722656 C 12.460938 15.765625 12.535156 15.789062 12.628906 15.789062 C 12.714844 15.789062 12.785156 15.773438 12.835938 15.738281 C 12.886719 15.703125 12.914062 15.65625 12.914062 15.597656 Z M 12.914062 15.597656 "/>
</g>
</svg>
